<?xml version="1.0" standalone="no"?>
<!DOCTYPE svg PUBLIC "-//W3C//DTD SVG 20010904//EN"
 "http://www.w3.org/TR/2001/REC-SVG-20010904/DTD/svg10.dtd">
<svg version="1.0" xmlns="http://www.w3.org/2000/svg"
 width="24.000000pt" height="24.000000pt" viewBox="0 0 24.000000 24.000000"
 preserveAspectRatio="xMidYMid meet">

<g transform="translate(0.000000,24.000000) scale(0.100000,-0.100000)"
fill="#000000" stroke="none">
<path d="M169 196 c-9 -19 -18 -25 -30 -21 -24 8 -92 -28 -113 -59 -15 -23
-15 -29 -2 -55 18 -35 33 -41 96 -41 63 0 78 6 96 41 14 28 13 31 -11 63 l-26
34 27 31 c32 38 22 41 -12 4 -23 -25 -24 -26 -14 -5 6 13 9 26 6 29 -3 3 -11
-6 -17 -21z m-29 -35 c0 -5 10 -11 22 -13 13 -2 24 -11 26 -20 3 -15 -5 -17
-68 -16 -39 1 -73 5 -76 9 -2 5 15 17 38 28 49 23 58 25 58 12z m80 -70 c0 -4
-9 -20 -21 -35 -30 -39 -128 -39 -158 0 -12 15 -21 31 -21 35 0 5 45 9 100 9
55 0 100 -4 100 -9z"/>
</g>
</svg>
