<?xml version="1.0" standalone="no"?>
<!DOCTYPE svg PUBLIC "-//W3C//DTD SVG 20010904//EN"
 "http://www.w3.org/TR/2001/REC-SVG-20010904/DTD/svg10.dtd">
<svg version="1.0" xmlns="http://www.w3.org/2000/svg"
 width="50.000000pt" height="50.000000pt" viewBox="0 0 50.000000 50.000000"
 preserveAspectRatio="xMidYMid meet">

<g transform="translate(0.000000,50.000000) scale(0.100000,-0.100000)"
fill="#000000" stroke="none">
<path d="M90 422 c-19 -9 -40 -28 -47 -42 -36 -73 -39 -86 -29 -103 8 -12 7
-26 -1 -48 -8 -21 -9 -38 -3 -50 6 -10 10 -31 10 -48 0 -18 9 -40 20 -51 19
-19 33 -20 210 -20 177 0 191 1 210 20 11 11 20 33 20 51 0 17 4 38 10 48 6
12 5 29 -3 50 -8 22 -9 36 -1 48 10 17 7 30 -29 103 -23 47 -69 60 -207 60
-99 0 -132 -4 -160 -18z m100 -27 c0 -8 -7 -15 -15 -15 -8 0 -15 7 -15 15 0 8
7 15 15 15 8 0 15 -7 15 -15z m-50 -10 c0 -8 7 -15 15 -15 8 0 15 -7 15 -15 0
-8 -7 -15 -15 -15 -8 0 -15 7 -15 15 0 8 -7 15 -15 15 -8 0 -15 7 -15 15 0 8
7 15 15 15 8 0 15 -7 15 -15z m330 -81 c12 -13 8 -15 -31 -15 -42 1 -86 1
-129 0 -11 0 -38 0 -60 0 -22 0 -49 0 -60 0 -43 1 -87 1 -129 0 -39 0 -43 2
-31 15 19 24 421 24 440 0z m10 -104 c0 -19 -7 -20 -230 -20 -223 0 -230 1
-230 20 0 19 7 20 230 20 223 0 230 -1 230 -20z"/>
</g>
</svg>
