<?xml version="1.0" standalone="no"?>
<!DOCTYPE svg PUBLIC "-//W3C//DTD SVG 20010904//EN"
 "http://www.w3.org/TR/2001/REC-SVG-20010904/DTD/svg10.dtd">
<svg version="1.0" xmlns="http://www.w3.org/2000/svg"
 width="50.000000pt" height="50.000000pt" viewBox="0 0 50.000000 50.000000"
 preserveAspectRatio="xMidYMid meet">

<g transform="translate(0.000000,50.000000) scale(0.100000,-0.100000)"
fill="#000000" stroke="none">
<path d="M307 429 c-9 -5 -21 -8 -26 -4 -5 3 -21 0 -36 -7 -20 -9 -34 -9 -61
1 -29 11 -38 10 -52 -1 -9 -8 -29 -19 -44 -26 -16 -6 -28 -16 -28 -21 0 -5 -9
-11 -20 -14 -16 -4 -18 -9 -11 -35 7 -24 6 -32 -6 -36 -28 -11 8 -130 55 -183
30 -35 64 -43 172 -43 108 0 142 8 172 43 47 53 83 172 55 183 -12 4 -13 12
-6 37 12 43 12 47 -9 47 -20 0 -88 35 -109 56 -17 16 -22 17 -46 3z m43 -18
c0 -5 9 -13 20 -16 24 -8 27 -25 3 -25 -9 0 -31 -11 -48 -25 -31 -23 -34 -23
-48 -7 -8 9 -20 27 -26 40 -10 18 -9 23 4 28 8 3 22 4 30 1 8 -4 17 -2 20 3 8
13 45 13 45 1z m-170 -10 c0 -5 12 -11 27 -13 28 -3 46 -28 20 -28 -8 0 -27
-10 -42 -22 -26 -20 -28 -20 -55 -5 -15 10 -35 17 -44 17 -10 0 -13 6 -10 15
4 8 14 15 24 15 10 0 23 7 30 15 14 16 50 21 50 6z m280 -60 c0 -37 -12 -51
-42 -51 -26 0 -29 2 -18 15 20 24 6 27 -18 5 -20 -19 -72 -28 -72 -12 1 29 57
62 107 62 36 0 43 -3 43 -19z m-326 -31 l20 -20 -21 0 c-11 0 -26 7 -33 15
-13 15 -35 11 -25 -6 4 -5 -1 -9 -9 -9 -9 0 -16 4 -16 9 0 5 -3 17 -7 27 -6
15 -2 16 32 11 21 -4 48 -16 59 -27z m138 13 c29 -26 21 -33 -42 -33 -33 0
-60 3 -60 7 0 3 7 15 17 25 20 22 61 23 85 1z m198 -78 l0 -25 -220 0 -220 0
0 25 0 25 220 0 220 0 0 -25z m-26 -77 c-9 -18 -28 -45 -42 -60 -25 -28 -27
-28 -153 -28 l-127 0 -35 41 c-19 22 -37 49 -40 60 -5 18 2 19 204 19 l210 0
-17 -32z"/>
</g>
</svg>
